<svg version="1.1" id="Layer_1" xmlns="http://www.w3.org/2000/svg" xmlns:xlink="http://www.w3.org/1999/xlink" x="0px" y="0px"
	 width="20%" viewBox="0 0 1012 1012" enable-background="new 0 0 512 512" xml:space="preserve">
<path fill="#FFFFFF" opacity="1.000000" stroke="none" 
	d="
M383.000000,0.999998 
	C389.687653,1.000000 396.375275,1.000000 403.242188,1.301626 
	C417.351166,8.976177 420.961151,21.282948 420.052368,35.909550 
	C419.725983,41.163094 420.000000,46.453945 420.000000,52.360786 
	C432.521362,50.717052 443.480103,52.967796 452.380920,61.856853 
	C461.287323,70.751495 462.993958,81.883339 461.881653,94.000000 
	C470.157837,94.000000 477.795532,93.845390 485.424377,94.038948 
	C495.060516,94.283440 503.379822,97.435585 509.195221,105.667526 
	C510.298004,107.228577 511.723419,108.561722 513.000000,110.000000 
	C513.000000,116.687645 513.000000,123.375282 512.699768,130.242325 
	C504.800903,144.237228 492.448242,147.998947 477.713348,147.052094 
	C472.617371,146.724625 467.482635,147.000000 462.207703,147.000000 
	C462.207703,152.485672 462.207703,157.554642 462.207703,163.000000 
	C470.527710,163.000000 478.652985,163.214081 486.762268,162.945587 
	C496.810669,162.612885 504.249023,166.732559 509.650421,175.054382 
	C510.429779,176.255096 511.867126,177.028732 513.000000,178.000000 
	C513.000000,184.687637 513.000000,191.375290 512.697388,198.242035 
	C511.944366,198.869568 511.324097,199.237701 511.068481,199.778244 
	C505.994781,210.507294 497.062714,214.825104 485.702454,214.979752 
	C477.935364,215.085495 470.165710,215.000000 462.360413,215.000000 
	C462.360413,220.577927 462.360413,225.759201 462.360413,231.000000 
	C471.361481,231.000000 480.011200,230.754227 488.640747,231.065796 
	C498.184265,231.410355 505.613495,235.560928 510.096771,244.370453 
	C510.650177,245.457825 512.012512,246.133530 513.000000,247.000000 
	C513.000000,253.354385 513.000000,259.708771 512.695679,266.241882 
	C511.916840,267.033783 511.324738,267.588379 510.985535,268.268982 
	C505.904388,278.463837 497.601532,283.167572 486.307343,283.020416 
	C478.242157,282.915344 470.174530,283.000000 462.322418,283.000000 
	C462.322418,288.735046 462.322418,293.798157 462.322418,299.000000 
	C470.942230,299.000000 479.256042,298.677582 487.534088,299.084137 
	C497.215973,299.559601 505.230652,303.369446 510.094482,312.373566 
	C510.679352,313.456299 512.013245,314.134369 513.000000,315.000000 
	C513.000000,321.687653 513.000000,328.375275 512.702759,335.243225 
	C511.921051,336.032867 511.373871,336.602753 510.961426,337.257477 
	C505.040985,346.655365 496.993378,351.797943 485.429443,351.089905 
	C477.701935,350.616852 469.921997,351.000000 462.305969,351.000000 
	C462.305969,356.687286 462.305969,361.757019 462.305969,367.000000 
	C470.088379,367.000000 477.569244,366.861908 485.043091,367.032196 
	C496.397491,367.290863 505.481171,371.650421 511.071808,382.042145 
	C511.349304,382.557953 512.340881,382.689545 513.000000,383.000000 
	C513.000000,389.687653 513.000000,396.375275 512.698364,403.242157 
	C505.023895,417.351196 492.717072,420.961060 478.090515,420.052368 
	C472.836975,419.725983 467.546112,420.000000 461.771606,420.000000 
	C463.126495,432.471466 461.063416,443.482666 452.146179,452.383942 
	C443.237823,461.276276 432.116760,462.994110 420.000000,461.881622 
	C420.000000,470.157715 420.154572,477.795441 419.961029,485.424347 
	C419.716553,495.060486 416.564453,503.379791 408.332458,509.195160 
	C406.771423,510.297974 405.438293,511.723419 404.000000,513.000000 
	C397.312347,513.000000 390.624725,513.000000 383.757690,512.699768 
	C369.762787,504.800934 366.001190,492.448242 366.947937,477.713409 
	C367.275360,472.617432 367.000000,467.482727 367.000000,462.207672 
	C361.514374,462.207672 356.445404,462.207672 351.000000,462.207672 
	C351.000000,470.527954 350.785889,478.653076 351.054382,486.762238 
	C351.387115,496.810638 347.267456,504.248993 338.945618,509.650421 
	C337.744904,510.429779 336.971283,511.867157 336.000000,513.000000 
	C329.312347,513.000000 322.624725,513.000000 315.757965,512.697388 
	C315.130463,511.944336 314.762329,511.324066 314.221771,511.068451 
	C303.492615,505.994843 299.174988,497.062683 299.020264,485.702484 
	C298.914490,477.935394 299.000000,470.165710 299.000000,462.360413 
	C293.421753,462.360413 288.240845,462.360413 283.000000,462.360413 
	C283.000000,471.361481 283.245789,480.011200 282.934204,488.640778 
	C282.589600,498.184265 278.439117,505.613525 269.629547,510.096771 
	C268.542175,510.650146 267.866486,512.012512 267.000000,513.000000 
	C260.645599,513.000000 254.291214,513.000000 247.758087,512.695618 
	C246.966141,511.916809 246.411545,511.324677 245.730911,510.985474 
	C235.536041,505.904358 230.832443,497.601410 230.979584,486.307281 
	C231.084656,478.242126 231.000000,470.174469 231.000000,462.322449 
	C225.265457,462.322449 220.201233,462.322449 215.000000,462.322449 
	C215.000000,470.942108 215.322433,479.256012 214.915878,487.534088 
	C214.440414,497.215942 210.630630,505.230713 201.626434,510.094482 
	C200.543732,510.679352 199.865616,512.013245 199.000000,513.000000 
	C192.312363,513.000000 185.624710,513.000000 178.756744,512.702820 
	C177.967102,511.921112 177.397293,511.373901 176.742599,510.961426 
	C167.344666,505.040985 162.202103,496.993469 162.910095,485.429504 
	C163.383209,477.701996 163.000000,469.922028 163.000000,462.305939 
	C157.314514,462.305939 152.243866,462.305939 147.000000,462.305939 
	C147.000000,470.088501 147.138046,477.569244 146.967789,485.042969 
	C146.709152,496.397400 142.349655,505.481079 131.957886,511.071747 
	C131.442078,511.349213 131.310501,512.340881 131.000000,513.000000 
	C124.312355,513.000000 117.624710,513.000000 110.757835,512.698364 
	C96.648834,505.023895 93.038994,492.717072 93.947632,478.090546 
	C94.273994,472.837006 94.000000,467.546112 94.000000,461.639191 
	C81.478661,463.283142 70.520004,461.032043 61.619171,452.143158 
	C52.712658,443.248596 51.006126,432.116699 52.118359,420.000000 
	C43.842220,420.000000 36.204540,420.154541 28.575693,419.960999 
	C18.939543,419.716553 10.620231,416.564484 4.804832,408.332489 
	C3.702051,406.771393 2.276575,405.438293 0.999995,404.000000 
	C1.000000,397.312347 1.000000,390.624725 1.300229,383.757660 
	C9.199092,369.762756 21.551815,366.001190 36.286621,366.947937 
	C41.382610,367.275330 46.517334,367.000000 51.792313,367.000000 
	C51.792313,361.514343 51.792313,356.445374 51.792313,351.000000 
	C43.472271,351.000000 35.347004,350.785889 27.237722,351.054413 
	C17.189301,351.387146 9.751009,347.267395 4.349541,338.945618 
	C3.570180,337.744904 2.132846,336.971283 1.000000,336.000000 
	C1.000000,329.312347 1.000000,322.624725 1.302551,315.757996 
	C2.055599,315.130493 2.675889,314.762421 2.931514,314.221863 
	C8.005191,303.492828 16.937138,299.174835 28.297424,299.020233 
	C36.064518,298.914490 43.834209,299.000000 51.639633,299.000000 
	C51.639633,293.422119 51.639633,288.240845 51.639633,283.000000 
	C42.638607,283.000000 33.988907,283.245667 25.359310,282.934174 
	C15.815674,282.589752 8.386640,278.438904 3.903208,269.629578 
	C3.349799,268.542206 1.987473,267.866486 0.999997,267.000000 
	C1.000000,260.645599 1.000000,254.291214 1.304382,247.758087 
	C2.083218,246.966125 2.675269,246.411499 3.014487,245.730881 
	C8.095649,235.536057 16.398598,230.832428 27.692736,230.979568 
	C35.757908,231.084656 43.825554,231.000000 51.677567,231.000000 
	C51.677567,225.265442 51.677567,220.201233 51.677567,215.000000 
	C43.057888,215.000000 34.743996,215.322418 26.465908,214.915894 
	C16.784035,214.440430 8.769336,210.630539 3.905530,201.626434 
	C3.320674,200.543716 1.986741,199.865631 0.999999,199.000000 
	C1.000000,192.312363 1.000000,185.624710 1.297192,178.756744 
	C2.078919,177.967117 2.626115,177.397278 3.038571,176.742554 
	C8.959015,167.344650 17.006580,162.202118 28.570524,162.910110 
	C36.298042,163.383224 44.077991,163.000000 51.694042,163.000000 
	C51.694042,157.314484 51.694042,152.243835 51.694042,147.000000 
	C43.911442,147.000000 36.430698,147.138016 28.956972,146.967804 
	C17.602484,146.709198 8.518917,142.349518 2.928217,131.957870 
	C2.650725,131.442078 1.659102,131.310486 1.000000,131.000000 
	C1.000000,124.312355 1.000000,117.624710 1.301621,110.757835 
	C8.976144,96.648827 21.282932,93.038902 35.909512,93.947624 
	C41.163063,94.274025 46.453922,94.000000 52.360783,94.000000 
	C50.717033,81.478661 52.967819,70.519943 61.856834,61.619095 
	C70.751465,52.712635 81.883339,51.006168 94.000000,52.118351 
	C94.000000,43.842278 93.845383,36.204559 94.038956,28.575670 
	C94.283455,18.939533 97.435539,10.620216 105.667534,4.804824 
	C107.228592,3.702034 108.561707,2.276575 110.000000,0.999999 
	C116.687645,1.000000 123.375282,1.000000 130.242310,1.300217 
	C144.237228,9.199063 147.998886,21.551773 147.052109,36.286621 
	C146.724670,41.382610 147.000000,46.517330 147.000000,51.792320 
	C152.485672,51.792320 157.554626,51.792320 163.000000,51.792320 
	C163.000000,43.472286 163.214096,35.347023 162.945587,27.237740 
	C162.612885,17.189337 166.732529,9.750999 175.054398,4.349575 
	C176.255112,3.570232 177.028732,2.132862 178.000000,1.000003 
	C184.687637,1.000000 191.375290,1.000000 198.242035,1.302564 
	C198.869553,2.055621 199.237640,2.675900 199.778183,2.931520 
	C210.507263,8.005220 214.825134,16.937201 214.979752,28.297493 
	C215.085480,36.064575 215.000000,43.834263 215.000000,51.639626 
	C220.577881,51.639626 225.759155,51.639626 231.000000,51.639626 
	C231.000000,42.638569 230.754333,33.988888 231.065796,25.359312 
	C231.410233,15.815683 235.561081,8.386659 244.370407,3.903240 
	C245.457809,3.349817 246.133514,1.987487 247.000000,1.000002 
	C253.354385,1.000000 259.708771,1.000000 266.241882,1.304380 
	C267.033875,2.083209 267.588501,2.675234 268.269135,3.014469 
	C278.463959,8.095660 283.167572,16.398623 283.020386,27.692770 
	C282.915314,35.757938 283.000000,43.825577 283.000000,51.677544 
	C288.735138,51.677544 293.798248,51.677544 299.000000,51.677544 
	C299.000000,43.057697 298.677582,34.743866 299.084137,26.465839 
	C299.559631,16.783987 303.369476,8.769302 312.373627,3.905540 
	C313.456329,3.320698 314.134399,1.986737 315.000000,0.999999 
	C321.687653,1.000000 328.375275,1.000000 335.243225,1.297185 
	C336.032867,2.078901 336.602692,2.626070 337.257416,3.038531 
	C346.655273,8.958989 351.797882,17.006502 351.089905,28.570469 
	C350.616791,36.297993 351.000000,44.077942 351.000000,51.694057 
	C356.687225,51.694057 361.756958,51.694057 367.000000,51.694057 
	C367.000000,43.911476 366.861969,36.430737 367.032166,28.957014 
	C367.290741,17.602514 371.650452,8.518958 382.042084,2.928222 
	C382.557861,2.650732 382.689484,1.659103 383.000000,0.999998 
M313.500000,444.000000 
	C351.158813,444.000000 388.820709,443.739258 426.474243,444.186127 
	C435.711334,444.295746 444.199707,435.709473 444.177338,426.459167 
	C443.904480,313.482330 444.000214,200.504578 443.999756,87.527061 
	C443.999725,76.622345 437.371002,70.000290 426.455627,70.000252 
	C313.478119,69.999840 200.500610,69.999817 87.523102,70.000267 
	C76.619781,70.000313 70.000290,76.629524 70.000244,87.548302 
	C69.999847,200.525818 70.094536,313.503540 69.823792,426.480408 
	C69.801704,435.699585 78.286469,444.221008 87.545555,444.181152 
	C162.529236,443.858459 237.514923,444.000000 313.500000,444.000000 
M112.988739,24.849546 
	C112.517036,33.811516 112.045334,42.773487 111.573914,51.730068 
	C117.960159,51.730068 123.356880,51.730068 128.999619,51.730068 
	C128.999619,44.173599 129.114212,36.881798 128.956818,29.595873 
	C128.861725,25.194124 127.447792,20.843250 123.126617,19.233986 
	C118.772041,17.612284 115.213631,19.914879 112.988739,24.849546 
M467.599548,402.000000 
	C473.575500,401.999847 479.554352,402.113739 485.526459,401.962158 
	C490.010559,401.848389 494.492035,398.361511 495.016602,395.094727 
	C495.728210,390.662964 493.601685,386.763153 489.865326,386.261963 
	C480.704712,385.033173 471.374634,385.067444 462.157379,384.595764 
	C462.157379,390.979340 462.157379,396.252319 462.157379,402.000000 
	C463.729950,402.000000 465.176300,402.000000 467.599548,402.000000 
M48.348148,402.000000 
	C50.931767,402.384888 52.267483,401.749664 52.071354,398.660980 
	C51.790798,394.242706 51.999889,389.793335 51.999889,385.003784 
	C43.987526,385.003784 36.354904,384.533630 28.807732,385.135315 
	C21.180883,385.743408 18.316624,389.866058 18.949976,394.579498 
	C19.503572,398.699402 24.054493,401.964874 29.946413,401.993774 
	C35.756607,402.022278 41.567055,402.000000 48.348148,402.000000 
M402.000000,42.469006 
	C401.664948,36.430553 401.878082,30.291018 400.790161,24.391397 
	C400.133362,20.829933 396.840149,17.831322 392.719879,19.187094 
	C390.170868,20.025841 386.561371,22.483223 386.295044,24.578445 
	C385.149109,33.593296 385.064209,42.743011 384.600891,51.688614 
	C391.057709,51.688614 396.447876,51.688614 402.000000,51.688614 
	C402.000000,48.738129 402.000000,46.097908 402.000000,42.469006 
M112.000000,473.509949 
	C112.334892,478.884308 112.106613,484.376740 113.199707,489.592194 
	C113.947144,493.158386 117.137672,496.170013 121.266800,494.813812 
	C123.818382,493.975708 127.437897,491.526917 127.704117,489.435455 
	C128.851685,480.419800 128.937256,471.268951 129.402252,462.305847 
	C122.953613,462.305847 117.563026,462.305847 112.000000,462.305847 
	C112.000000,465.913025 112.000000,469.215637 112.000000,473.509949 
M21.517796,126.010750 
	C22.591316,126.672844 23.629803,127.839897 24.743896,127.917198 
	C33.708706,128.539169 42.687759,128.955811 51.764580,129.440643 
	C51.764580,123.112457 51.764580,117.715240 51.764580,112.000679 
	C43.752270,112.000679 35.924278,111.508774 28.212397,112.240540 
	C25.086857,112.537125 21.414991,114.913460 19.531893,117.475456 
	C18.433168,118.970322 20.379753,122.703506 21.517796,126.010750 
M483.206787,129.000000 
	C484.765991,128.682739 486.311768,128.237274 487.886932,128.072754 
	C492.246460,127.617439 494.709076,125.330025 494.987396,120.919350 
	C495.288391,116.149467 492.558350,113.156921 488.258362,112.919220 
	C479.632843,112.442413 470.962463,112.777557 462.226990,112.777557 
	C462.226990,117.881653 462.226990,123.272987 462.226990,129.000000 
	C469.053680,129.000000 475.659210,129.000000 483.206787,129.000000 
M396.417419,462.000000 
	C392.667114,462.000000 388.916840,462.000000 384.515106,462.000000 
	C385.026489,471.133270 385.428040,479.642426 386.010864,488.139130 
	C386.293213,492.255524 388.712677,494.573303 392.837311,494.993378 
	C397.364044,495.454407 400.459808,493.016968 400.896301,488.955048 
	C401.838409,480.187622 401.973846,471.333496 402.466492,462.000000 
	C400.262848,462.000000 398.825592,462.000000 396.417419,462.000000 
M196.987610,26.154461 
	C196.317551,24.702448 196.026978,22.553150 194.900360,21.939987 
	C192.361511,20.558212 189.260010,18.935564 186.671158,19.320217 
	C184.568481,19.632633 181.388000,22.629049 181.261383,24.600586 
	C180.680832,33.639442 181.005997,42.736469 181.005997,51.712311 
	C186.662155,51.712311 191.727097,51.712311 196.999252,51.712311 
	C196.999252,43.299892 196.999252,35.173840 196.987610,26.154461 
M181.057327,462.733643 
	C181.038208,470.708405 181.008286,478.683167 181.004028,486.657928 
	C181.001434,491.518402 183.741516,494.769867 187.846664,495.014313 
	C193.791504,495.368317 196.167816,492.849884 196.776855,487.108093 
	C197.643143,478.941193 196.996979,470.613892 196.996979,462.056854 
	C191.633194,462.056854 186.688904,462.056854 181.057327,462.733643 
M462.003967,182.705093 
	C462.003967,187.443787 462.003967,192.182480 462.003967,196.999542 
	C470.659790,196.999542 478.630798,197.109009 486.596771,196.956467 
	C491.022125,196.871704 494.524994,193.579880 495.030701,189.881226 
	C495.643707,185.397644 493.403198,181.506363 489.667816,181.274384 
	C480.509186,180.705643 471.266113,181.496613 462.003967,182.705093 
M254.576660,462.000000 
	C252.810867,462.000000 251.045059,462.000000 249.000641,462.000000 
	C249.000641,470.932007 248.886749,479.363983 249.049088,487.790588 
	C249.129257,491.951996 252.494629,494.882080 256.700623,494.999908 
	C260.969299,495.119415 264.795013,492.393372 264.914215,488.387909 
	C265.173706,479.669800 264.994354,470.938599 264.994354,462.000000 
	C261.472168,462.000000 258.507629,462.000000 254.576660,462.000000 
M317.000000,473.512146 
	C317.000244,477.996765 316.804474,482.492340 317.053589,486.963104 
	C317.325256,491.838074 320.533661,494.733459 324.983398,495.037537 
	C329.339691,495.335236 332.541992,492.968628 332.792664,489.309448 
	C333.410431,480.291107 332.994995,471.202026 332.994995,462.303741 
	C327.297821,462.303741 322.237549,462.303741 317.000000,462.303741 
	C317.000000,465.909821 317.000000,469.214905 317.000000,473.512146 
M251.524292,20.988741 
	C250.684891,22.521090 249.161270,24.035017 249.119446,25.588833 
	C248.884338,34.321075 249.006104,43.062927 249.006104,51.721661 
	C254.647217,51.721661 259.709503,51.721661 265.000000,51.721661 
	C265.000000,43.826183 265.008392,36.206722 264.997803,28.587292 
	C264.985992,20.100063 260.004791,16.942991 251.524292,20.988741 
M330.330292,51.999710 
	C333.207123,52.487343 333.032318,50.610016 333.018921,48.675365 
	C332.970581,41.697918 333.002930,34.719933 332.998993,27.742147 
	C332.996185,22.753212 330.435883,19.286879 326.553589,19.000385 
	C321.042419,18.593687 317.280640,21.442089 317.079437,26.967590 
	C316.779541,35.205429 317.001648,43.462276 317.001648,51.999985 
	C321.446320,51.999985 325.402802,51.999985 330.330292,51.999710 
M493.979156,320.810608 
	C491.801086,319.542847 489.673615,317.297424 487.435852,317.181519 
	C479.040588,316.746765 470.609314,317.007385 462.289673,317.007385 
	C462.289673,322.658966 462.289673,327.726257 462.289673,333.000000 
	C470.544159,333.000000 478.510315,333.008148 486.476440,332.997620 
	C493.786072,332.987946 496.459869,329.000732 493.979156,320.810608 
M48.347847,333.000000 
	C50.936443,333.386719 52.283588,332.744110 52.069618,329.656067 
	C51.786465,325.569580 51.999889,321.448669 51.999889,317.004456 
	C43.302372,317.004456 34.967075,316.363190 26.791763,317.230286 
	C21.358234,317.806610 18.612455,319.977997 18.990568,326.252686 
	C19.234215,330.295929 22.551863,332.991974 27.440680,332.997986 
	C34.086170,333.006134 40.731682,333.000000 48.347847,333.000000 
M21.002275,194.484543 
	C31.029331,199.728729 41.605389,195.657730 51.656509,197.091034 
	C51.656509,191.229980 51.656509,186.159653 51.656509,181.000000 
	C43.831802,181.000000 36.350262,180.999802 28.868725,181.000061 
	C19.883654,181.000366 16.800289,185.705139 21.002275,194.484543 
M479.457642,265.000000 
	C482.277191,264.999756 485.122101,265.238739 487.910400,264.943420 
	C492.134979,264.495972 494.620728,261.982056 494.982788,257.673462 
	C495.333527,253.499374 492.600464,249.249115 488.764832,249.111237 
	C479.896149,248.792465 471.008240,249.009949 462.301941,249.009949 
	C462.301941,254.707596 462.301941,259.763458 462.301941,265.000000 
	C467.892151,265.000000 473.181671,265.000000 479.457642,265.000000 
M47.380589,265.000000 
	C48.818008,265.000000 50.255428,265.000000 51.783249,265.000000 
	C51.783249,259.465118 51.783249,254.410614 51.783249,249.000031 
	C43.484085,249.000031 35.396023,248.954422 27.308786,249.016403 
	C22.118822,249.056183 18.957731,252.206223 19.000111,257.091339 
	C19.042250,261.948944 22.207121,264.944336 27.491476,264.987793 
	C33.794006,265.039642 40.097282,265.000000 47.380589,265.000000 
z"/>
<path fill="#000000" opacity="000000" stroke="none" 
	d="
M109.531342,0.999999 
	C108.561707,2.276575 107.228592,3.702034 105.667534,4.804824 
	C97.435539,10.620216 94.283455,18.939533 94.038956,28.575670 
	C93.845383,36.204559 94.000000,43.842278 94.000000,52.118351 
	C81.883339,51.006168 70.751465,52.712635 61.856834,61.619095 
	C52.967819,70.519943 50.717033,81.478661 52.360783,94.000000 
	C46.453922,94.000000 41.163063,94.274025 35.909512,93.947624 
	C21.282932,93.038902 8.976144,96.648827 1.301621,110.289307 
	C1.000000,73.739723 1.000000,37.479439 1.000000,1.000000 
	C37.020599,1.000000 73.041641,1.000000 109.531342,0.999999 
z"/>
<path fill="#000000" opacity="000000" stroke="none" 
	d="
M0.999995,404.468658 
	C2.276575,405.438293 3.702051,406.771393 4.804832,408.332489 
	C10.620231,416.564484 18.939543,419.716553 28.575693,419.960999 
	C36.204540,420.154541 43.842220,420.000000 52.118359,420.000000 
	C51.006126,432.116699 52.712658,443.248596 61.619171,452.143158 
	C70.520004,461.032043 81.478661,463.283142 94.000000,461.639191 
	C94.000000,467.546112 94.273994,472.837006 93.947632,478.090546 
	C93.038994,492.717072 96.648834,505.023895 110.289307,512.698364 
	C73.739716,513.000000 37.479435,513.000000 1.000000,513.000000 
	C1.000000,476.979401 1.000000,440.958374 0.999995,404.468658 
z"/>
<path fill="#000000" opacity="000000" stroke="none" 
	d="
M404.468658,513.000000 
	C405.438293,511.723419 406.771423,510.297974 408.332458,509.195160 
	C416.564453,503.379791 419.716553,495.060486 419.961029,485.424347 
	C420.154572,477.795441 420.000000,470.157715 420.000000,461.881622 
	C432.116760,462.994110 443.237823,461.276276 452.146179,452.383942 
	C461.063416,443.482666 463.126495,432.471466 461.771606,420.000000 
	C467.546112,420.000000 472.836975,419.725983 478.090515,420.052368 
	C492.717072,420.961060 505.023895,417.351196 512.698364,403.710693 
	C513.000000,440.260284 513.000000,476.520538 513.000000,513.000000 
	C476.979401,513.000000 440.958374,513.000000 404.468658,513.000000 
z"/>
<path fill="#000000" opacity="000000" stroke="none" 
	d="
M513.000000,109.531342 
	C511.723419,108.561722 510.298004,107.228577 509.195221,105.667526 
	C503.379822,97.435585 495.060516,94.283440 485.424377,94.038948 
	C477.795532,93.845390 470.157837,94.000000 461.881653,94.000000 
	C462.993958,81.883339 461.287323,70.751495 452.380920,61.856853 
	C443.480103,52.967796 432.521362,50.717052 420.000000,52.360786 
	C420.000000,46.453945 419.725983,41.163094 420.052368,35.909550 
	C420.961151,21.282948 417.351166,8.976177 403.710693,1.301626 
	C440.260284,1.000000 476.520538,1.000000 513.000000,1.000000 
	C513.000000,37.020599 513.000000,73.041641 513.000000,109.531342 
z"/>
<path fill="#000000" opacity="000000" stroke="none" 
	d="
M1.000000,336.468658 
	C2.132846,336.971283 3.570180,337.744904 4.349541,338.945618 
	C9.751009,347.267395 17.189301,351.387146 27.237722,351.054413 
	C35.347004,350.785889 43.472271,351.000000 51.792313,351.000000 
	C51.792313,356.445374 51.792313,361.514343 51.792313,367.000000 
	C46.517334,367.000000 41.382610,367.275330 36.286621,366.947937 
	C21.551815,366.001190 9.199092,369.762756 1.300229,383.289124 
	C1.000000,367.645782 1.000000,352.291534 1.000000,336.468658 
z"/>
<path fill="#000000" opacity="000000" stroke="none" 
	d="
M177.531342,1.000003 
	C177.028732,2.132862 176.255112,3.570232 175.054398,4.349575 
	C166.732529,9.750999 162.612885,17.189337 162.945587,27.237740 
	C163.214096,35.347023 163.000000,43.472286 163.000000,51.792320 
	C157.554626,51.792320 152.485672,51.792320 147.000000,51.792320 
	C147.000000,46.517330 146.724670,41.382610 147.052109,36.286621 
	C147.998886,21.551773 144.237228,9.199063 130.710846,1.300217 
	C146.354233,1.000000 161.708450,1.000000 177.531342,1.000003 
z"/>
<path fill="#000000" opacity="000000" stroke="none" 
	d="
M513.000000,177.531342 
	C511.867126,177.028732 510.429779,176.255096 509.650421,175.054382 
	C504.249023,166.732559 496.810669,162.612885 486.762268,162.945587 
	C478.652985,163.214081 470.527710,163.000000 462.207703,163.000000 
	C462.207703,157.554642 462.207703,152.485672 462.207703,147.000000 
	C467.482635,147.000000 472.617371,146.724625 477.713348,147.052094 
	C492.448242,147.998947 504.800903,144.237228 512.699768,130.710861 
	C513.000000,146.354233 513.000000,161.708450 513.000000,177.531342 
z"/>
<path fill="#000000" opacity="000000" stroke="none" 
	d="
M1.000000,131.468658 
	C1.659102,131.310486 2.650725,131.442078 2.928217,131.957870 
	C8.518917,142.349518 17.602484,146.709198 28.956972,146.967804 
	C36.430698,147.138016 43.911442,147.000000 51.694042,147.000000 
	C51.694042,152.243835 51.694042,157.314484 51.694042,163.000000 
	C44.077991,163.000000 36.298042,163.383224 28.570524,162.910110 
	C17.006580,162.202118 8.959015,167.344650 3.038571,176.742554 
	C2.626115,177.397278 2.078919,177.967117 1.297192,178.288208 
	C1.000000,162.645767 1.000000,147.291550 1.000000,131.468658 
z"/>
<path fill="#000000" opacity="000000" stroke="none" 
	d="
M513.000000,382.531342 
	C512.340881,382.689545 511.349304,382.557953 511.071808,382.042145 
	C505.481171,371.650421 496.397491,367.290863 485.043091,367.032196 
	C477.569244,366.861908 470.088379,367.000000 462.305969,367.000000 
	C462.305969,361.757019 462.305969,356.687286 462.305969,351.000000 
	C469.921997,351.000000 477.701935,350.616852 485.429443,351.089905 
	C496.993378,351.797943 505.040985,346.655365 510.961426,337.257477 
	C511.373871,336.602753 511.921051,336.032867 512.702759,335.711792 
	C513.000000,351.354218 513.000000,366.708466 513.000000,382.531342 
z"/>
<path fill="#000000" opacity="000000" stroke="none" 
	d="
M336.468658,513.000000 
	C336.971283,511.867157 337.744904,510.429779 338.945618,509.650421 
	C347.267456,504.248993 351.387115,496.810638 351.054382,486.762238 
	C350.785889,478.653076 351.000000,470.527954 351.000000,462.207672 
	C356.445404,462.207672 361.514374,462.207672 367.000000,462.207672 
	C367.000000,467.482727 367.275360,472.617432 366.947937,477.713409 
	C366.001190,492.448242 369.762787,504.800934 383.289154,512.699768 
	C367.645782,513.000000 352.291534,513.000000 336.468658,513.000000 
z"/>
<path fill="#000000" opacity="000000" stroke="none" 
	d="
M382.531342,0.999998 
	C382.689484,1.659103 382.557861,2.650732 382.042084,2.928222 
	C371.650452,8.518958 367.290741,17.602514 367.032166,28.957014 
	C366.861969,36.430737 367.000000,43.911476 367.000000,51.694057 
	C361.756958,51.694057 356.687225,51.694057 351.000000,51.694057 
	C351.000000,44.077942 350.616791,36.297993 351.089905,28.570469 
	C351.797882,17.006502 346.655273,8.958989 337.257416,3.038531 
	C336.602692,2.626070 336.032867,2.078901 335.711792,1.297185 
	C351.354218,1.000000 366.708466,1.000000 382.531342,0.999998 
z"/>
<path fill="#000000" opacity="000000" stroke="none" 
	d="
M131.468658,513.000000 
	C131.310501,512.340881 131.442078,511.349213 131.957886,511.071747 
	C142.349655,505.481079 146.709152,496.397400 146.967789,485.042969 
	C147.138046,477.569244 147.000000,470.088501 147.000000,462.305939 
	C152.243866,462.305939 157.314514,462.305939 163.000000,462.305939 
	C163.000000,469.922028 163.383209,477.701996 162.910095,485.429504 
	C162.202103,496.993469 167.344666,505.040985 176.742599,510.961426 
	C177.397293,511.373901 177.967102,511.921112 178.288208,512.702820 
	C162.645767,513.000000 147.291550,513.000000 131.468658,513.000000 
z"/>
<path fill="#000000" opacity="000000" stroke="none" 
	d="
M513.000000,314.531342 
	C512.013245,314.134369 510.679352,313.456299 510.094482,312.373566 
	C505.230652,303.369446 497.215973,299.559601 487.534088,299.084137 
	C479.256042,298.677582 470.942230,299.000000 462.322418,299.000000 
	C462.322418,293.798157 462.322418,288.735046 462.322418,283.000000 
	C470.174530,283.000000 478.242157,282.915344 486.307343,283.020416 
	C497.601532,283.167572 505.904388,278.463837 510.985535,268.268982 
	C511.324738,267.588379 511.916840,267.033783 512.695679,266.710297 
	C513.000000,282.687561 513.000000,298.375122 513.000000,314.531342 
z"/>
<path fill="#000000" opacity="00000" stroke="none" 
	d="
M0.999997,267.468658 
	C1.987473,267.866486 3.349799,268.542206 3.903208,269.629578 
	C8.386640,278.438904 15.815674,282.589752 25.359310,282.934174 
	C33.988907,283.245667 42.638607,283.000000 51.639633,283.000000 
	C51.639633,288.240845 51.639633,293.422119 51.639633,299.000000 
	C43.834209,299.000000 36.064518,298.914490 28.297424,299.020233 
	C16.937138,299.174835 8.005191,303.492828 2.931514,314.221863 
	C2.675889,314.762421 2.055599,315.130493 1.302551,315.289429 
	C1.000000,299.312439 1.000000,283.624878 0.999997,267.468658 
z"/>
<path fill="#000000" opacity="0000" stroke="none" 
	d="
M199.468658,513.000000 
	C199.865616,512.013245 200.543732,510.679352 201.626434,510.094482 
	C210.630630,505.230713 214.440414,497.215942 214.915878,487.534088 
	C215.322433,479.256012 215.000000,470.942108 215.000000,462.322449 
	C220.201233,462.322449 225.265457,462.322449 231.000000,462.322449 
	C231.000000,470.174469 231.084656,478.242126 230.979584,486.307281 
	C230.832443,497.601410 235.536041,505.904358 245.730911,510.985474 
	C246.411545,511.324677 246.966141,511.916809 247.289673,512.695618 
	C231.312439,513.000000 215.624878,513.000000 199.468658,513.000000 
z"/>
<path fill="#000000" opacity="00000" stroke="none" 
	d="
M267.468689,513.000000 
	C267.866486,512.012512 268.542175,510.650146 269.629547,510.096771 
	C278.439117,505.613525 282.589600,498.184265 282.934204,488.640778 
	C283.245789,480.011200 283.000000,471.361481 283.000000,462.360413 
	C288.240845,462.360413 293.421753,462.360413 299.000000,462.360413 
	C299.000000,470.165710 298.914490,477.935394 299.020264,485.702484 
	C299.174988,497.062683 303.492615,505.994843 314.221771,511.068451 
	C314.762329,511.324066 315.130463,511.944336 315.289429,512.697388 
	C299.312439,513.000000 283.624878,513.000000 267.468689,513.000000 
z"/>
<path fill="#000000" opacity="00000" stroke="none" 
	d="
M513.000000,246.531342 
	C512.012512,246.133530 510.650177,245.457825 510.096771,244.370453 
	C505.613495,235.560928 498.184265,231.410355 488.640747,231.065796 
	C480.011200,230.754227 471.361481,231.000000 462.360413,231.000000 
	C462.360413,225.759201 462.360413,220.577927 462.360413,215.000000 
	C470.165710,215.000000 477.935364,215.085495 485.702454,214.979752 
	C497.062714,214.825104 505.994781,210.507294 511.068481,199.778244 
	C511.324097,199.237701 511.944366,198.869568 512.697388,198.710571 
	C513.000000,214.687561 513.000000,230.375122 513.000000,246.531342 
z"/>
<path fill="#000000" opacity="00000" stroke="none" 
	d="
M0.999999,199.468658 
	C1.986741,199.865631 3.320674,200.543716 3.905530,201.626434 
	C8.769336,210.630539 16.784035,214.440430 26.465908,214.915894 
	C34.743996,215.322418 43.057888,215.000000 51.677567,215.000000 
	C51.677567,220.201233 51.677567,225.265442 51.677567,231.000000 
	C43.825554,231.000000 35.757908,231.084656 27.692736,230.979568 
	C16.398598,230.832428 8.095649,235.536057 3.014487,245.730881 
	C2.675269,246.411499 2.083218,246.966125 1.304382,247.289673 
	C1.000000,231.312439 1.000000,215.624878 0.999999,199.468658 
z"/>
<path fill="#000000" opacity="000000" stroke="none" 
	d="
M246.531342,1.000002 
	C246.133514,1.987487 245.457809,3.349817 244.370407,3.903240 
	C235.561081,8.386659 231.410233,15.815683 231.065796,25.359312 
	C230.754333,33.988888 231.000000,42.638569 231.000000,51.639626 
	C225.759155,51.639626 220.577881,51.639626 215.000000,51.639626 
	C215.000000,43.834263 215.085480,36.064575 214.979752,28.297493 
	C214.825134,16.937201 210.507263,8.005220 199.778183,2.931520 
	C199.237640,2.675900 198.869553,2.055621 198.710571,1.302564 
	C214.687561,1.000000 230.375122,1.000000 246.531342,1.000002 
z"/>
<path fill="#000000" opacity="000000" stroke="none" 
	d="
M314.531342,0.999999 
	C314.134399,1.986737 313.456329,3.320698 312.373627,3.905540 
	C303.369476,8.769302 299.559631,16.783987 299.084137,26.465839 
	C298.677582,34.743866 299.000000,43.057697 299.000000,51.677544 
	C293.798248,51.677544 288.735138,51.677544 283.000000,51.677544 
	C283.000000,43.825577 282.915314,35.757938 283.020386,27.692770 
	C283.167572,16.398623 278.463959,8.095660 268.269135,3.014469 
	C267.588501,2.675234 267.033875,2.083209 266.710327,1.304380 
	C282.687561,1.000000 298.375122,1.000000 314.531342,0.999999 
z"/>
<path fill="#000000" opacity="000000" stroke="none" 
	d="
M313.000000,444.000000 
	C237.514923,444.000000 162.529236,443.858459 87.545555,444.181152 
	C78.286469,444.221008 69.801704,435.699585 69.823792,426.480408 
	C70.094536,313.503540 69.999847,200.525818 70.000244,87.548302 
	C70.000290,76.629524 76.619781,70.000313 87.523102,70.000267 
	C200.500610,69.999817 313.478119,69.999840 426.455627,70.000252 
	C437.371002,70.000290 443.999725,76.622345 443.999756,87.527061 
	C444.000214,200.504578 443.904480,313.482330 444.177338,426.459167 
	C444.199707,435.709473 435.711334,444.295746 426.474243,444.186127 
	C388.820709,443.739258 351.158813,444.000000 313.000000,444.000000 
M192.697937,403.000000 
	C235.693146,403.000000 278.689423,403.169006 321.682892,402.894135 
	C334.133545,402.814545 340.106293,399.376251 342.569458,388.337677 
	C343.881073,382.459747 342.785706,375.860291 341.895996,369.713989 
	C340.055389,356.998566 332.154633,348.507874 320.552582,344.244202 
	C314.317566,341.952911 307.189392,342.092102 300.204529,341.097595 
	C300.204529,336.526642 300.204529,331.454926 300.204529,326.000000 
	C303.354523,326.000000 306.314972,326.049835 309.273346,325.991699 
	C325.345917,325.675842 341.481995,326.099579 357.470459,324.763611 
	C370.863953,323.644440 380.047363,313.025909 384.111420,301.185730 
	C384.903717,298.877502 386.725952,296.327881 388.791382,295.161560 
	C395.363922,291.450012 402.257477,288.301819 409.060760,285.005646 
	C416.238922,281.527863 419.753357,275.474701 419.903717,267.880859 
	C420.220337,251.888824 420.172729,235.883331 419.909088,219.889389 
	C419.812836,214.048538 417.699677,208.504135 412.480499,205.266174 
	C407.880890,202.412582 402.752380,200.420059 397.899780,197.963593 
	C391.248352,194.596542 384.715271,192.234238 382.177277,183.161774 
	C379.067017,172.043488 365.696014,162.760010 352.304382,162.909973 
	C325.310669,163.212250 298.311188,163.000000 271.314087,163.000000 
	C269.567108,163.000000 267.820160,163.000000 266.000000,163.000000 
	C266.000000,157.796005 266.237640,153.282867 265.916473,148.809845 
	C265.702301,145.826965 266.889435,144.272476 269.377197,143.133728 
	C281.591583,137.542801 285.755402,123.195518 281.609772,111.208038 
	C277.643555,99.739357 263.848022,91.945160 251.562897,94.780220 
	C240.340576,97.370010 232.502731,106.428574 231.099564,116.689262 
	C229.649582,127.292259 234.263260,138.364777 244.838608,143.459045 
	C246.109222,144.071121 247.784760,145.521072 247.852219,146.666321 
	C248.170441,152.068909 247.994034,157.500626 247.994034,163.000000 
	C218.154816,163.000000 188.997894,162.996674 159.840988,163.009598 
	C158.351593,163.010254 156.773224,162.854645 155.386765,163.271851 
	C142.653412,167.103348 133.579224,174.664047 129.837982,187.966217 
	C129.263184,190.009964 127.164116,192.112167 125.217865,193.194351 
	C118.608727,196.869339 111.863319,200.348099 104.960548,203.433289 
	C97.057877,206.965378 94.140129,213.349030 94.049789,221.322586 
	C93.877983,236.485672 93.889252,251.653229 94.044243,266.816681 
	C94.128418,275.052063 97.476440,281.420410 105.355728,285.078278 
	C112.214661,288.262482 118.956001,291.719269 125.607285,295.318054 
	C127.304649,296.236389 129.326904,297.941071 129.736954,299.637970 
	C133.988861,317.233856 149.514236,326.266998 166.165451,326.041534 
	C180.827850,325.842957 195.495087,325.992615 210.160141,326.013153 
	C211.417587,326.014923 212.674789,326.202209 213.651978,326.280792 
	C213.651978,331.772705 213.651978,336.851562 213.651978,342.000000 
	C210.809250,342.000000 208.313919,341.972290 205.819351,342.004242 
	C179.332840,342.343353 167.046906,365.731476 171.757706,389.130035 
	C173.714996,398.851929 179.607529,402.043274 192.697937,403.000000 
M87.850197,146.327591 
	C93.957581,156.654694 106.207253,158.279297 114.615150,149.875214 
	C126.509140,137.986603 138.268036,125.958023 150.368942,114.283928 
	C154.456848,110.340202 156.509735,102.364990 153.731537,95.273804 
	C151.670456,90.013031 145.178528,86.015770 138.854538,86.005661 
	C126.699326,85.986229 114.544014,85.983948 102.388802,86.005096 
	C92.693413,86.021965 86.012466,92.828140 86.002502,102.669769 
	C85.991539,113.492935 85.898575,124.317596 86.057701,135.138428 
	C86.109955,138.692230 86.837555,142.236069 87.850197,146.327591 
z"/>
<path fill="#000000" opacity="0000" stroke="none" 
	d="
M113.001938,24.432419 
	C115.213631,19.914879 118.772041,17.612284 123.126617,19.233986 
	C127.447792,20.843250 128.861725,25.194124 128.956818,29.595873 
	C129.114212,36.881798 128.999619,44.173599 128.999619,51.730068 
	C123.356880,51.730068 117.960159,51.730068 111.573914,51.730068 
	C112.045334,42.773487 112.517036,33.811516 113.001938,24.432419 
z"/>
<path fill="#000000" opacity="000000" stroke="none" 
	d="
M467.111084,402.000000 
	C465.176300,402.000000 463.729950,402.000000 462.157379,402.000000 
	C462.157379,396.252319 462.157379,390.979340 462.157379,384.595764 
	C471.374634,385.067444 480.704712,385.033173 489.865326,386.261963 
	C493.601685,386.763153 495.728210,390.662964 495.016602,395.094727 
	C494.492035,398.361511 490.010559,401.848389 485.526459,401.962158 
	C479.554352,402.113739 473.575500,401.999847 467.111084,402.000000 
z"/>
<path fill="#000000" opacity="00000" stroke="none" 
	d="
M47.862770,402.000000 
	C41.567055,402.000000 35.756607,402.022278 29.946413,401.993774 
	C24.054493,401.964874 19.503572,398.699402 18.949976,394.579498 
	C18.316624,389.866058 21.180883,385.743408 28.807732,385.135315 
	C36.354904,384.533630 43.987526,385.003784 51.999889,385.003784 
	C51.999889,389.793335 51.790798,394.242706 52.071354,398.660980 
	C52.267483,401.749664 50.931767,402.384888 47.862770,402.000000 
z"/>
<path fill="#000000" opacity="00000" stroke="none" 
	d="
M402.000000,42.963345 
	C402.000000,46.097908 402.000000,48.738129 402.000000,51.688614 
	C396.447876,51.688614 391.057709,51.688614 384.600891,51.688614 
	C385.064209,42.743011 385.149109,33.593296 386.295044,24.578445 
	C386.561371,22.483223 390.170868,20.025841 392.719879,19.187094 
	C396.840149,17.831322 400.133362,20.829933 400.790161,24.391397 
	C401.878082,30.291018 401.664948,36.430553 402.000000,42.963345 
z"/>
<path fill="#000000" opacity="000000" stroke="none" 
	d="
M112.000000,473.014099 
	C112.000000,469.215637 112.000000,465.913025 112.000000,462.305847 
	C117.563026,462.305847 122.953613,462.305847 129.402252,462.305847 
	C128.937256,471.268951 128.851685,480.419800 127.704117,489.435455 
	C127.437897,491.526917 123.818382,493.975708 121.266800,494.813812 
	C117.137672,496.170013 113.947144,493.158386 113.199707,489.592194 
	C112.106613,484.376740 112.334892,478.884308 112.000000,473.014099 
z"/>
<path fill="#000000" opacity="00000" stroke="none" 
	d="
M21.237011,125.720200 
	C20.379753,122.703506 18.433168,118.970322 19.531893,117.475456 
	C21.414991,114.913460 25.086857,112.537125 28.212397,112.240540 
	C35.924278,111.508774 43.752270,112.000679 51.764580,112.000679 
	C51.764580,117.715240 51.764580,123.112457 51.764580,129.440643 
	C42.687759,128.955811 33.708706,128.539169 24.743896,127.917198 
	C23.629803,127.839897 22.591316,126.672844 21.237011,125.720200 
z"/>
<path fill="#000000" opacity="00000" stroke="none" 
	d="
M482.735748,129.000000 
	C475.659210,129.000000 469.053680,129.000000 462.226990,129.000000 
	C462.226990,123.272987 462.226990,117.881653 462.226990,112.777557 
	C470.962463,112.777557 479.632843,112.442413 488.258362,112.919220 
	C492.558350,113.156921 495.288391,116.149467 494.987396,120.919350 
	C494.709076,125.330025 492.246460,127.617439 487.886932,128.072754 
	C486.311768,128.237274 484.765991,128.682739 482.735748,129.000000 
z"/>
<path fill="#000000" opacity="00000" stroke="none" 
	d="
M396.902893,462.000000 
	C398.825592,462.000000 400.262848,462.000000 402.466492,462.000000 
	C401.973846,471.333496 401.838409,480.187622 400.896301,488.955048 
	C400.459808,493.016968 397.364044,495.454407 392.837311,494.993378 
	C388.712677,494.573303 386.293213,492.255524 386.010864,488.139130 
	C385.428040,479.642426 385.026489,471.133270 384.515106,462.000000 
	C388.916840,462.000000 392.667114,462.000000 396.902893,462.000000 
z"/>
<path fill="#000000" opacity="00000" stroke="none" 
	d="
M196.993439,26.601124 
	C196.999252,35.173840 196.999252,43.299892 196.999252,51.712311 
	C191.727097,51.712311 186.662155,51.712311 181.005997,51.712311 
	C181.005997,42.736469 180.680832,33.639442 181.261383,24.600586 
	C181.388000,22.629049 184.568481,19.632633 186.671158,19.320217 
	C189.260010,18.935564 192.361511,20.558212 194.900360,21.939987 
	C196.026978,22.553150 196.317551,24.702448 196.993439,26.601124 
z"/>
<path fill="#000000" opacity="0000" stroke="none" 
	d="
M181.400970,462.395264 
	C186.688904,462.056854 191.633194,462.056854 196.996979,462.056854 
	C196.996979,470.613892 197.643143,478.941193 196.776855,487.108093 
	C196.167816,492.849884 193.791504,495.368317 187.846664,495.014313 
	C183.741516,494.769867 181.001434,491.518402 181.004028,486.657928 
	C181.008286,478.683167 181.038208,470.708405 181.400970,462.395264 
z"/>
<path fill="#000000" opacity="000000" stroke="none" 
	d="
M462.030518,182.222809 
	C471.266113,181.496613 480.509186,180.705643 489.667816,181.274384 
	C493.403198,181.506363 495.643707,185.397644 495.030701,189.881226 
	C494.524994,193.579880 491.022125,196.871704 486.596771,196.956467 
	C478.630798,197.109009 470.659790,196.999542 462.003967,196.999542 
	C462.003967,192.182480 462.003967,187.443787 462.030518,182.222809 
z"/>
<path fill="#000000" opacity="00000" stroke="none" 
	d="
M255.059875,462.000000 
	C258.507629,462.000000 261.472168,462.000000 264.994354,462.000000 
	C264.994354,470.938599 265.173706,479.669800 264.914215,488.387909 
	C264.795013,492.393372 260.969299,495.119415 256.700623,494.999908 
	C252.494629,494.882080 249.129257,491.951996 249.049088,487.790588 
	C248.886749,479.363983 249.000641,470.932007 249.000641,462.000000 
	C251.045059,462.000000 252.810867,462.000000 255.059875,462.000000 
z"/>
<path fill="#000000" opacity="00000" stroke="none" 
	d="
M317.000000,473.016083 
	C317.000000,469.214905 317.000000,465.909821 317.000000,462.303741 
	C322.237549,462.303741 327.297821,462.303741 332.994995,462.303741 
	C332.994995,471.202026 333.410431,480.291107 332.792664,489.309448 
	C332.541992,492.968628 329.339691,495.335236 324.983398,495.037537 
	C320.533661,494.733459 317.325256,491.838074 317.053589,486.963104 
	C316.804474,482.492340 317.000244,477.996765 317.000000,473.016083 
z"/>
<path fill="#000000" opacity="00000" stroke="none" 
	d="
M251.805603,20.689680 
	C260.004791,16.942991 264.985992,20.100063 264.997803,28.587292 
	C265.008392,36.206722 265.000000,43.826183 265.000000,51.721661 
	C259.709503,51.721661 254.647217,51.721661 249.006104,51.721661 
	C249.006104,43.062927 248.884338,34.321075 249.119446,25.588833 
	C249.161270,24.035017 250.684891,22.521090 251.805603,20.689680 
z"/>
<path fill="#000000" opacity="000000" stroke="none" 
	d="
M329.844788,51.999847 
	C325.402802,51.999985 321.446320,51.999985 317.001648,51.999985 
	C317.001648,43.462276 316.779541,35.205429 317.079437,26.967590 
	C317.280640,21.442089 321.042419,18.593687 326.553589,19.000385 
	C330.435883,19.286879 332.996185,22.753212 332.998993,27.742147 
	C333.002930,34.719933 332.970581,41.697918 333.018921,48.675365 
	C333.032318,50.610016 333.207123,52.487343 329.844788,51.999847 
z"/>
<path fill="#000000" opacity="00000" stroke="none" 
	d="
M494.050110,321.218079 
	C496.459869,329.000732 493.786072,332.987946 486.476440,332.997620 
	C478.510315,333.008148 470.544159,333.000000 462.289673,333.000000 
	C462.289673,327.726257 462.289673,322.658966 462.289673,317.007385 
	C470.609314,317.007385 479.040588,316.746765 487.435852,317.181519 
	C489.673615,317.297424 491.801086,319.542847 494.050110,321.218079 
z"/>
<path fill="#000000" opacity="000000" stroke="none" 
	d="
M47.862514,333.000000 
	C40.731682,333.000000 34.086170,333.006134 27.440680,332.997986 
	C22.551863,332.991974 19.234215,330.295929 18.990568,326.252686 
	C18.612455,319.977997 21.358234,317.806610 26.791763,317.230286 
	C34.967075,316.363190 43.302372,317.004456 51.999889,317.004456 
	C51.999889,321.448669 51.786465,325.569580 52.069618,329.656067 
	C52.283588,332.744110 50.936443,333.386719 47.862514,333.000000 
z"/>
<path fill="#000000" opacity="00000" stroke="none" 
	d="
M20.701778,194.202087 
	C16.800289,185.705139 19.883654,181.000366 28.868725,181.000061 
	C36.350262,180.999802 43.831802,181.000000 51.656509,181.000000 
	C51.656509,186.159653 51.656509,191.229980 51.656509,197.091034 
	C41.605389,195.657730 31.029331,199.728729 20.701778,194.202087 
z"/>
<path fill="#000000" opacity="000000" stroke="none" 
	d="
M478.964417,265.000000 
	C473.181671,265.000000 467.892151,265.000000 462.301941,265.000000 
	C462.301941,259.763458 462.301941,254.707596 462.301941,249.009949 
	C471.008240,249.009949 479.896149,248.792465 488.764832,249.111237 
	C492.600464,249.249115 495.333527,253.499374 494.982788,257.673462 
	C494.620728,261.982056 492.134979,264.495972 487.910400,264.943420 
	C485.122101,265.238739 482.277191,264.999756 478.964417,265.000000 
z"/>
<path fill="#000000" opacity="00000" stroke="none" 
	d="
M46.890411,265.000000 
	C40.097282,265.000000 33.794006,265.039642 27.491476,264.987793 
	C22.207121,264.944336 19.042250,261.948944 19.000111,257.091339 
	C18.957731,252.206223 22.118822,249.056183 27.308786,249.016403 
	C35.396023,248.954422 43.484085,249.000031 51.783249,249.000031 
	C51.783249,254.410614 51.783249,259.465118 51.783249,265.000000 
	C50.255428,265.000000 48.818008,265.000000 46.890411,265.000000 
z"/>
<path fill="#FFFFFF" opacity="1.000000" stroke="none" 
	d="
M192.223755,403.000000 
	C179.607529,402.043274 173.714996,398.851929 171.757706,389.130035 
	C167.046906,365.731476 179.332840,342.343353 205.819351,342.004242 
	C208.313919,341.972290 210.809250,342.000000 213.651978,342.000000 
	C213.651978,336.851562 213.651978,331.772705 213.651978,326.280792 
	C212.674789,326.202209 211.417587,326.014923 210.160141,326.013153 
	C195.495087,325.992615 180.827850,325.842957 166.165451,326.041534 
	C149.514236,326.266998 133.988861,317.233856 129.736954,299.637970 
	C129.326904,297.941071 127.304649,296.236389 125.607285,295.318054 
	C118.956001,291.719269 112.214661,288.262482 105.355728,285.078278 
	C97.476440,281.420410 94.128418,275.052063 94.044243,266.816681 
	C93.889252,251.653229 93.877983,236.485672 94.049789,221.322586 
	C94.140129,213.349030 97.057877,206.965378 104.960548,203.433289 
	C111.863319,200.348099 118.608727,196.869339 125.217865,193.194351 
	C127.164116,192.112167 129.263184,190.009964 129.837982,187.966217 
	C133.579224,174.664047 142.653412,167.103348 155.386765,163.271851 
	C156.773224,162.854645 158.351593,163.010254 159.840988,163.009598 
	C188.997894,162.996674 218.154816,163.000000 247.994034,163.000000 
	C247.994034,157.500626 248.170441,152.068909 247.852219,146.666321 
	C247.784760,145.521072 246.109222,144.071121 244.838608,143.459045 
	C234.263260,138.364777 229.649582,127.292259 231.099564,116.689262 
	C232.502731,106.428574 240.340576,97.370010 251.562897,94.780220 
	C263.848022,91.945160 277.643555,99.739357 281.609772,111.208038 
	C285.755402,123.195518 281.591583,137.542801 269.377197,143.133728 
	C266.889435,144.272476 265.702301,145.826965 265.916473,148.809845 
	C266.237640,153.282867 266.000000,157.796005 266.000000,163.000000 
	C267.820160,163.000000 269.567108,163.000000 271.314087,163.000000 
	C298.311188,163.000000 325.310669,163.212250 352.304382,162.909973 
	C365.696014,162.760010 379.067017,172.043488 382.177277,183.161774 
	C384.715271,192.234238 391.248352,194.596542 397.899780,197.963593 
	C402.752380,200.420059 407.880890,202.412582 412.480499,205.266174 
	C417.699677,208.504135 419.812836,214.048538 419.909088,219.889389 
	C420.172729,235.883331 420.220337,251.888824 419.903717,267.880859 
	C419.753357,275.474701 416.238922,281.527863 409.060760,285.005646 
	C402.257477,288.301819 395.363922,291.450012 388.791382,295.161560 
	C386.725952,296.327881 384.903717,298.877502 384.111420,301.185730 
	C380.047363,313.025909 370.863953,323.644440 357.470459,324.763611 
	C341.481995,326.099579 325.345917,325.675842 309.273346,325.991699 
	C306.314972,326.049835 303.354523,326.000000 300.204529,326.000000 
	C300.204529,331.454926 300.204529,336.526642 300.204529,341.097595 
	C307.189392,342.092102 314.317566,341.952911 320.552582,344.244202 
	C332.154633,348.507874 340.055389,356.998566 341.895996,369.713989 
	C342.785706,375.860291 343.881073,382.459747 342.569458,388.337677 
	C340.106293,399.376251 334.133545,402.814545 321.682892,402.894135 
	C278.689423,403.169006 235.693146,403.000000 192.223755,403.000000 
M150.024200,301.258331 
	C153.280731,303.177124 156.374878,306.309753 159.826340,306.771515 
	C167.952988,307.858704 176.249680,307.943268 184.478317,307.956055 
	C239.121689,308.040924 293.765259,307.990784 348.408752,308.007629 
	C359.551605,308.011078 367.002930,300.776184 367.001801,292.416351 
	C366.997406,260.096710 367.025238,227.777054 366.980164,195.457489 
	C366.970337,188.405243 359.497040,181.018494 352.403625,181.015533 
	C288.763947,180.988953 225.124069,181.066956 161.484879,180.891464 
	C155.443222,180.874802 146.821747,189.768982 146.870239,195.570358 
	C147.140442,227.887726 146.931168,260.208954 147.127502,292.527405 
	C147.143631,295.183380 148.962662,297.828430 150.024200,301.258331 
M260.500000,360.000000 
	C242.520309,360.000000 224.540588,359.982300 206.561020,360.030731 
	C204.972717,360.035004 203.344162,360.317505 201.804550,360.731842 
	C191.466385,363.514038 187.085754,373.523895 189.604309,384.743225 
	C234.661087,384.743225 279.700195,384.743225 325.000000,384.743225 
	C325.000000,382.857361 324.888031,381.209503 325.017914,379.580933 
	C325.975708,367.570374 315.954773,359.276794 305.440765,359.812683 
	C290.828613,360.557373 276.150116,360.000000 260.500000,360.000000 
M129.000000,251.500000 
	C129.000000,238.489975 129.000000,225.479965 129.000000,212.024750 
	C123.001251,215.013321 117.567062,217.720642 112.000275,220.494019 
	C112.000275,235.456100 111.958427,250.412460 112.079422,265.367523 
	C112.089142,266.568359 112.909401,268.325775 113.882591,268.860229 
	C118.624443,271.464264 123.546463,273.740173 129.000000,276.425323 
	C129.000000,268.013428 129.000000,260.256683 129.000000,251.500000 
M399.805420,269.017303 
	C400.536896,267.755890 401.892151,266.500641 401.904663,265.232117 
	C402.052673,250.260132 401.999817,235.286163 401.999817,220.456161 
	C396.308197,217.646622 390.845123,214.949905 385.351929,212.238327 
	C385.351929,233.618149 385.351929,254.736847 385.351929,276.322906 
	C390.241089,273.856384 394.663330,271.625427 399.805420,269.017303 
M242.521545,326.000000 
	C239.082870,326.000000 235.644196,326.000000 232.282349,326.000000 
	C232.282349,331.635681 232.282349,336.707153 232.282349,341.719543 
	C248.968445,341.719543 265.370697,341.719543 281.716919,341.719543 
	C281.716919,336.362885 281.716919,331.291412 281.716919,326.000000 
	C268.795624,326.000000 256.156342,326.000000 242.521545,326.000000 
M250.934875,115.601700 
	C248.032684,120.724174 248.514114,124.004822 252.618332,127.073456 
	C255.206802,129.008789 260.550598,128.267151 262.826965,125.656624 
	C265.961823,122.061615 265.817749,118.333725 262.356476,114.853798 
	C259.011200,111.490570 255.310211,111.500793 250.934875,115.601700 
z"/>
<path fill="#FFFFFF" opacity="1.000000" stroke="none" 
	d="
M87.553261,146.056030 
	C86.837555,142.236069 86.109955,138.692230 86.057701,135.138428 
	C85.898575,124.317596 85.991539,113.492935 86.002502,102.669769 
	C86.012466,92.828140 92.693413,86.021965 102.388802,86.005096 
	C114.544014,85.983948 126.699326,85.986229 138.854538,86.005661 
	C145.178528,86.015770 151.670456,90.013031 153.731537,95.273804 
	C156.509735,102.364990 154.456848,110.340202 150.368942,114.283928 
	C138.268036,125.958023 126.509140,137.986603 114.615150,149.875214 
	C106.207253,158.279297 93.957581,156.654694 87.553261,146.056030 
M122.500069,116.999939 
	C126.480980,113.008720 130.461899,109.017502 135.162949,104.304283 
	C123.668343,104.304283 113.921143,104.304283 104.326927,104.304283 
	C104.326927,114.624893 104.326927,124.638451 104.326927,135.246384 
	C110.527435,129.020157 116.263725,123.260063 122.500069,116.999939 
z"/>
<path fill="#000000" opacity="00000" stroke="none" 
	d="
M149.984100,300.868439 
	C148.962662,297.828430 147.143631,295.183380 147.127502,292.527405 
	C146.931168,260.208954 147.140442,227.887726 146.870239,195.570358 
	C146.821747,189.768982 155.443222,180.874802 161.484879,180.891464 
	C225.124069,181.066956 288.763947,180.988953 352.403625,181.015533 
	C359.497040,181.018494 366.970337,188.405243 366.980164,195.457489 
	C367.025238,227.777054 366.997406,260.096710 367.001801,292.416351 
	C367.002930,300.776184 359.551605,308.011078 348.408752,308.007629 
	C293.765259,307.990784 239.121689,308.040924 184.478317,307.956055 
	C176.249680,307.943268 167.952988,307.858704 159.826340,306.771515 
	C156.374878,306.309753 153.280731,303.177124 149.984100,300.868439 
M304.103851,201.367935 
	C295.531097,208.364136 290.515930,216.750565 290.856537,228.462418 
	C291.441071,248.562744 309.986633,261.078552 329.339111,256.196747 
	C341.581360,253.108566 352.259949,241.403412 351.133392,224.703796 
	C350.400879,213.844803 342.653503,202.636627 332.401764,198.935776 
	C322.774597,195.460434 313.707367,196.535309 304.103851,201.367935 
M196.231689,197.000000 
	C173.820633,195.191681 159.705002,212.895615 163.217102,233.521072 
	C165.265442,245.550232 173.647980,253.226395 185.354462,256.732849 
	C195.129150,259.660675 210.356079,254.871292 216.279984,247.188934 
	C230.879227,228.256088 221.831512,200.738495 196.231689,197.000000 
M240.643829,289.002258 
	C248.312759,291.121979 255.881195,292.470123 264.047272,291.148132 
	C278.515411,288.805908 290.315521,282.510315 298.779480,270.478149 
	C301.457886,266.670624 300.096619,260.504181 296.547729,258.202667 
	C292.657074,255.679504 285.748688,256.773499 283.185150,260.379456 
	C270.699249,277.942322 242.942200,277.402435 230.954803,260.577271 
	C227.978165,256.399384 223.571487,256.204346 219.410797,257.342590 
	C215.418579,258.434723 213.076614,261.917816 214.153656,266.068665 
	C215.002777,269.341217 216.749664,272.659058 218.934036,275.252380 
	C224.476898,281.832916 232.028809,285.650787 240.643829,289.002258 
z"/>
<path fill="#000000" opacity="000000" stroke="none" 
	d="
M261.000000,360.000000 
	C276.150116,360.000000 290.828613,360.557373 305.440765,359.812683 
	C315.954773,359.276794 325.975708,367.570374 325.017914,379.580933 
	C324.888031,381.209503 325.000000,382.857361 325.000000,384.743225 
	C279.700195,384.743225 234.661087,384.743225 189.604309,384.743225 
	C187.085754,373.523895 191.466385,363.514038 201.804550,360.731842 
	C203.344162,360.317505 204.972717,360.035004 206.561020,360.030731 
	C224.540588,359.982300 242.520309,360.000000 261.000000,360.000000 
z"/>
<path fill="#000000" opacity="00000" stroke="none" 
	d="
M129.000000,251.999985 
	C129.000000,260.256683 129.000000,268.013428 129.000000,276.425323 
	C123.546463,273.740173 118.624443,271.464264 113.882591,268.860229 
	C112.909401,268.325775 112.089142,266.568359 112.079422,265.367523 
	C111.958427,250.412460 112.000275,235.456100 112.000275,220.494019 
	C117.567062,217.720642 123.001251,215.013321 129.000000,212.024750 
	C129.000000,225.479965 129.000000,238.489975 129.000000,251.999985 
z"/>
<path fill="#000000" opacity="00000" stroke="none" 
	d="
M399.445496,269.205872 
	C394.663330,271.625427 390.241089,273.856384 385.351929,276.322906 
	C385.351929,254.736847 385.351929,233.618149 385.351929,212.238327 
	C390.845123,214.949905 396.308197,217.646622 401.999817,220.456161 
	C401.999817,235.286163 402.052673,250.260132 401.904663,265.232117 
	C401.892151,266.500641 400.536896,267.755890 399.445496,269.205872 
z"/>
<path fill="#000000" opacity="00000" stroke="none" 
	d="
M243.019318,326.000000 
	C256.156342,326.000000 268.795624,326.000000 281.716919,326.000000 
	C281.716919,331.291412 281.716919,336.362885 281.716919,341.719543 
	C265.370697,341.719543 248.968445,341.719543 232.282349,341.719543 
	C232.282349,336.707153 232.282349,331.635681 232.282349,326.000000 
	C235.644196,326.000000 239.082870,326.000000 243.019318,326.000000 
z"/>
<path fill="#000000" opacity="00000" stroke="none" 
	d="
M251.197723,115.313576 
	C255.310211,111.500793 259.011200,111.490570 262.356476,114.853798 
	C265.817749,118.333725 265.961823,122.061615 262.826965,125.656624 
	C260.550598,128.267151 255.206802,129.008789 252.618332,127.073456 
	C248.514114,124.004822 248.032684,120.724174 251.197723,115.313576 
z"/>
<path fill="#000000" opacity="00000" stroke="none" 
	d="
M122.250046,117.249954 
	C116.263725,123.260063 110.527435,129.020157 104.326927,135.246384 
	C104.326927,124.638451 104.326927,114.624893 104.326927,104.304283 
	C113.921143,104.304283 123.668343,104.304283 135.162949,104.304283 
	C130.461899,109.017502 126.480980,113.008720 122.250046,117.249954 
z"/>
<path fill="#FFFFFF" opacity="1.000000" stroke="none" 
	d="
M304.447052,201.193787 
	C313.707367,196.535309 322.774597,195.460434 332.401764,198.935776 
	C342.653503,202.636627 350.400879,213.844803 351.133392,224.703796 
	C352.259949,241.403412 341.581360,253.108566 329.339111,256.196747 
	C309.986633,261.078552 291.441071,248.562744 290.856537,228.462418 
	C290.515930,216.750565 295.531097,208.364136 304.447052,201.193787 
M330.978394,234.218628 
	C331.320892,233.494202 331.670715,232.773132 332.004700,232.044785 
	C333.982483,227.731750 333.210815,221.696030 329.780731,218.518967 
	C326.253723,215.252136 321.887207,213.875427 317.154510,215.394455 
	C312.506195,216.886398 309.047302,222.015396 308.996552,226.763306 
	C308.941071,231.952133 310.946869,235.871597 315.876190,237.986084 
	C321.492401,240.395203 326.314667,238.917389 330.978394,234.218628 
z"/>
<path fill="#FFFFFF" opacity="1.000000" stroke="none" 
	d="
M196.688522,197.000031 
	C221.831512,200.738495 230.879227,228.256088 216.279984,247.188934 
	C210.356079,254.871292 195.129150,259.660675 185.354462,256.732849 
	C173.647980,253.226395 165.265442,245.550232 163.217102,233.521072 
	C159.705002,212.895615 173.820633,195.191681 196.688522,197.000031 
M196.746490,215.220779 
	C195.424866,215.147186 194.103043,215.007736 192.781647,215.011810 
	C188.001083,215.026550 182.884735,218.454300 181.426880,223.141479 
	C179.975082,227.809158 181.070038,232.249237 184.412750,235.822250 
	C187.542297,239.167404 193.671722,239.825150 198.000916,238.066101 
	C202.671127,236.168488 204.574875,232.558578 204.977905,227.912186 
	C205.491638,221.989929 202.463348,218.207504 196.746490,215.220779 
z"/>
<path fill="#FFFFFF" opacity="1.000000" stroke="none" 
	d="
M240.230835,288.987732 
	C232.028809,285.650787 224.476898,281.832916 218.934036,275.252380 
	C216.749664,272.659058 215.002777,269.341217 214.153656,266.068665 
	C213.076614,261.917816 215.418579,258.434723 219.410797,257.342590 
	C223.571487,256.204346 227.978165,256.399384 230.954803,260.577271 
	C242.942200,277.402435 270.699249,277.942322 283.185150,260.379456 
	C285.748688,256.773499 292.657074,255.679504 296.547729,258.202667 
	C300.096619,260.504181 301.457886,266.670624 298.779480,270.478149 
	C290.315521,282.510315 278.515411,288.805908 264.047272,291.148132 
	C255.881195,292.470123 248.312759,291.121979 240.230835,288.987732 
z"/>
<path fill="#000000" opacity="00000" stroke="none" 
	d="
M330.790833,234.567749 
	C326.314667,238.917389 321.492401,240.395203 315.876190,237.986084 
	C310.946869,235.871597 308.941071,231.952133 308.996552,226.763306 
	C309.047302,222.015396 312.506195,216.886398 317.154510,215.394455 
	C321.887207,213.875427 326.253723,215.252136 329.780731,218.518967 
	C333.210815,221.696030 333.982483,227.731750 332.004700,232.044785 
	C331.670715,232.773132 331.320892,233.494202 330.790833,234.567749 
z"/>
<path fill="#000000" opacity="00000" stroke="none" 
	d="
M197.026062,215.525818 
	C202.463348,218.207504 205.491638,221.989929 204.977905,227.912186 
	C204.574875,232.558578 202.671127,236.168488 198.000916,238.066101 
	C193.671722,239.825150 187.542297,239.167404 184.412750,235.822250 
	C181.070038,232.249237 179.975082,227.809158 181.426880,223.141479 
	C182.884735,218.454300 188.001083,215.026550 192.781647,215.011810 
	C194.103043,215.007736 195.424866,215.147186 197.026062,215.525818 
z"/>
</svg>