<svg xmlns="http://www.w3.org/2000/svg" viewBox="0 0 500 500"><g id="freepik--Line--inject-30"><path d="M204.21,379.39H334.63a5.56,5.56,0,0,0,5.55-5.56V321.5" style="fill:none;stroke:#263238;stroke-linejoin:round"></path><path d="M207,379.39a2.8,2.8,0,1,0-2.79,2.79A2.79,2.79,0,0,0,207,379.39Z" style="fill:#fff;stroke:#263238;stroke-linejoin:round"></path></g><g id="freepik--floppy-disk--inject-30"><path d="M451.58,65H420.2l-6,6.33H289.66V66.07h-35.8V64.4H234.69a5.16,5.16,0,0,0-5.16,5.16V303.88a5.15,5.15,0,0,0,5.16,5.15H459.34a5.15,5.15,0,0,0,5.16-5.15V78.49Z" style="fill:#616161;stroke:#263238;stroke-linejoin:round"></path><path d="M253.86,66.07v74.51a6.19,6.19,0,0,0,6.19,6.18H404.17a7.94,7.94,0,0,0,7.94-7.94V71H290.8V66.16Z" style="fill:#404040;stroke:#263238;stroke-linejoin:round"></path><polygon points="245.29 93.19 240.22 80.09 235.15 93.19 237.95 93.19 237.95 99.59 242.49 99.59 242.49 93.19 245.29 93.19" style="fill:#263238;stroke:#263238;stroke-linejoin:round"></polygon><rect x="236.84" y="280.81" width="11.51" height="10.72" style="fill:#fff;stroke:#263238;stroke-linejoin:round"></rect><rect x="445.28" y="280.81" width="11.51" height="10.72" style="fill:#fff;stroke:#263238;stroke-linejoin:round"></rect><rect x="253.32" y="164.95" width="187.52" height="124.75" rx="11.54" style="fill:#fff;stroke:#263238;stroke-linejoin:round"></rect><path d="M440.84,281.36V258.05H253.32v23.31a8.33,8.33,0,0,0,8.33,8.34H432.5A8.34,8.34,0,0,0,440.84,281.36Z" style="fill:#676668;stroke:#263238;stroke-linejoin:round"></path><line x1="262.21" y1="241.05" x2="431.42" y2="241.05" style="fill:none;stroke:#676668;stroke-linejoin:round;stroke-width:2px"></line><line x1="262.21" y1="222.75" x2="431.42" y2="222.75" style="fill:none;stroke:#676668;stroke-linejoin:round;stroke-width:2px"></line><line x1="262.21" y1="204.44" x2="431.42" y2="204.44" style="fill:none;stroke:#676668;stroke-linejoin:round;stroke-width:2px"></line><line x1="262.21" y1="186.13" x2="431.42" y2="186.13" style="fill:none;stroke:#676668;stroke-linejoin:round;stroke-width:2px"></line><line x1="253.32" y1="281.17" x2="253.32" y2="308.53" style="fill:none;stroke:#263238;stroke-linejoin:round"></line><line x1="440.84" y1="281.17" x2="440.84" y2="308.53" style="fill:none;stroke:#263238;stroke-linejoin:round"></line><path d="M288.27,65H412a0,0,0,0,1,0,0v72a9.65,9.65,0,0,1-9.65,9.65H297.92a9.65,9.65,0,0,1-9.65-9.65V65A0,0,0,0,1,288.27,65Z" style="fill:#fff;stroke:#263238;stroke-linejoin:round"></path><rect x="360.92" y="76.5" width="30.93" height="65" style="fill:#263238;stroke:#263238;stroke-linejoin:round"></rect></g><g id="freepik--device-1--inject-30"><path d="M197.7,312V202.26a4,4,0,0,0-4-4H41.61a4,4,0,0,0-4,4V324a4,4,0,0,0,4,4h11.9" style="fill:none;stroke:#263238;stroke-linejoin:round"></path><path d="M183.14,327.93h10.6a4,4,0,0,0,4-4v-7.72" style="fill:none;stroke:#263238;stroke-linejoin:round"></path><path d="M69.85,214.58H177.73a4.55,4.55,0,0,1,4.55,4.55v85.39a4.55,4.55,0,0,1-4.55,4.55H57a4.55,4.55,0,0,1-4.55-4.55V219.13A4.55,4.55,0,0,1,57,214.58h7.28" style="fill:none;stroke:#263238;stroke-linejoin:round"></path><path d="M56.83,321.28h123a3.32,3.32,0,0,1,3.32,3.32v13.18a0,0,0,0,1,0,0H53.51a0,0,0,0,1,0,0V324.6A3.32,3.32,0,0,1,56.83,321.28Z" style="fill:none;stroke:#263238;stroke-linejoin:round"></path><circle cx="168.44" cy="327.58" r="4.37" style="fill:none;stroke:#263238;stroke-linejoin:round"></circle><path d="M133.23,331.82a4.26,4.26,0,0,0,7.61,0Z" style="fill:none;stroke:#263238;stroke-linejoin:round"></path><path d="M148.87,331.82a4.26,4.26,0,0,0,7.62,0Z" style="fill:none;stroke:#263238;stroke-linejoin:round"></path><line x1="180.35" y1="331.57" x2="170.21" y2="331.57" style="fill:none;stroke:#263238;stroke-linejoin:round"></line><path d="M55.43,331.35H83.08v2.28A1.37,1.37,0,0,0,84.44,335h39.91a1.37,1.37,0,0,0,1.36-1.37v-2.06h41" style="fill:none;stroke:#263238;stroke-linejoin:round"></path><path d="M93.15,329.21A2.15,2.15,0,1,0,91,331.35,2.14,2.14,0,0,0,93.15,329.21Z" style="fill:none;stroke:#263238;stroke-linejoin:round"></path><path d="M99.15,329.21A2.15,2.15,0,1,0,97,331.35,2.14,2.14,0,0,0,99.15,329.21Z" style="fill:none;stroke:#263238;stroke-linejoin:round"></path><path d="M105.14,329.21a2.14,2.14,0,1,0-2.14,2.14A2.14,2.14,0,0,0,105.14,329.21Z" style="fill:none;stroke:#263238;stroke-linejoin:round"></path><path d="M111.14,329.21a2.14,2.14,0,1,0-2.14,2.14A2.14,2.14,0,0,0,111.14,329.21Z" style="fill:none;stroke:#263238;stroke-linejoin:round"></path><path d="M117.94,329.21a2.15,2.15,0,1,0-2.15,2.14A2.14,2.14,0,0,0,117.94,329.21Z" style="fill:none;stroke:#263238;stroke-linejoin:round"></path><path d="M123.94,329.21a2.15,2.15,0,1,0-2.15,2.14A2.14,2.14,0,0,0,123.94,329.21Z" style="fill:none;stroke:#263238;stroke-linejoin:round"></path><polyline points="78.58 338.21 93.79 345.5 143.07 345.5 156.14 338" style="fill:none;stroke:#263238;stroke-linejoin:round"></polyline><path d="M93.79,345.5v2.14H74.08l-1.5,10.5a396.06,396.06,0,0,0,46.92,2.57c24.86-.22,44.57-2.57,44.57-2.57l-2.57-10.5H144.57l-1.5-2.14" style="fill:none;stroke:#263238;stroke-linejoin:round"></path><path d="M93.79,347.64s4.93,5.78,24.21,5.78,25.07-4.07,25.07-4.07" style="fill:none;stroke:#263238;stroke-linejoin:round"></path><polyline points="76.86 359.21 76.86 361.35 159.14 361.35 159.14 358.78" style="fill:none;stroke:#263238;stroke-linejoin:round"></polyline><polyline points="186.41 353.45 205.96 353.45 205.96 429.63 29.13 429.63 29.13 353.45 73.32 353.45" style="fill:none;stroke:#263238;stroke-linejoin:round"></polyline><line x1="163.35" y1="353.45" x2="181.49" y2="353.45" style="fill:none;stroke:#263238;stroke-linejoin:round"></line><line x1="45.89" y1="365.69" x2="29.13" y2="365.69" style="fill:none;stroke:#263238;stroke-linejoin:round"></line><line x1="205.96" y1="365.69" x2="50.81" y2="365.69" style="fill:none;stroke:#263238;stroke-linejoin:round"></line><line x1="29.43" y1="393.86" x2="206.22" y2="393.86" style="fill:none;stroke:#263238;stroke-linejoin:round"></line><line x1="128.19" y1="418.03" x2="128.19" y2="429.15" style="fill:none;stroke:#263238;stroke-linejoin:round"></line><line x1="128.19" y1="394.18" x2="128.19" y2="414.09" style="fill:none;stroke:#263238;stroke-linejoin:round"></line><line x1="75.08" y1="394.18" x2="75.08" y2="429.15" style="fill:none;stroke:#263238;stroke-linejoin:round"></line><path d="M35.62,398.89a.51.51,0,1,0-.5.51A.51.51,0,0,0,35.62,398.89Z" style="fill:#263238"></path><circle cx="37.89" cy="398.89" r="0.5" style="fill:#263238"></circle><circle cx="40.67" cy="398.89" r="0.5" style="fill:#263238"></circle><circle cx="43.44" cy="398.89" r="0.5" style="fill:#263238"></circle><path d="M46.72,398.89a.5.5,0,1,0-.5.51A.5.5,0,0,0,46.72,398.89Z" style="fill:#263238"></path><path d="M49.5,398.89a.51.51,0,1,0-.5.51A.51.51,0,0,0,49.5,398.89Z" style="fill:#263238"></path><path d="M52.28,398.89a.51.51,0,0,0-.51-.5.51.51,0,0,0,0,1A.51.51,0,0,0,52.28,398.89Z" style="fill:#263238"></path><circle cx="54.55" cy="398.89" r="0.5" style="fill:#263238"></circle><circle cx="57.32" cy="398.89" r="0.5" style="fill:#263238"></circle><circle cx="60.1" cy="398.89" r="0.5" style="fill:#263238"></circle><path d="M63.38,398.89a.51.51,0,1,0-.5.51A.51.51,0,0,0,63.38,398.89Z" style="fill:#263238"></path><path d="M66.16,398.89a.51.51,0,0,0-.51-.5.51.51,0,0,0,0,1A.51.51,0,0,0,66.16,398.89Z" style="fill:#263238"></path><path d="M68.93,398.89a.5.5,0,0,0-.5-.5.51.51,0,1,0,0,1A.5.5,0,0,0,68.93,398.89Z" style="fill:#263238"></path><path d="M35.62,402.27a.51.51,0,1,0-.5.51A.51.51,0,0,0,35.62,402.27Z" style="fill:#263238"></path><circle cx="37.89" cy="402.27" r="0.5" style="fill:#263238"></circle><circle cx="40.67" cy="402.27" r="0.5" style="fill:#263238"></circle><circle cx="43.44" cy="402.27" r="0.5" style="fill:#263238"></circle><path d="M46.72,402.27a.5.5,0,1,0-.5.51A.5.5,0,0,0,46.72,402.27Z" style="fill:#263238"></path><path d="M49.5,402.27a.51.51,0,1,0-.5.51A.51.51,0,0,0,49.5,402.27Z" style="fill:#263238"></path><path d="M52.28,402.27a.51.51,0,0,0-.51-.5.51.51,0,0,0,0,1A.51.51,0,0,0,52.28,402.27Z" style="fill:#263238"></path><circle cx="54.55" cy="402.27" r="0.5" style="fill:#263238"></circle><circle cx="57.32" cy="402.27" r="0.5" style="fill:#263238"></circle><circle cx="60.1" cy="402.27" r="0.5" style="fill:#263238"></circle><path d="M63.38,402.27a.51.51,0,1,0-.5.51A.51.51,0,0,0,63.38,402.27Z" style="fill:#263238"></path><path d="M66.16,402.27a.51.51,0,0,0-.51-.5.51.51,0,0,0,0,1A.51.51,0,0,0,66.16,402.27Z" style="fill:#263238"></path><path d="M68.93,402.27a.5.5,0,0,0-.5-.5.51.51,0,1,0,0,1A.5.5,0,0,0,68.93,402.27Z" style="fill:#263238"></path><path d="M35.62,405.66a.51.51,0,1,0-.5.5A.51.51,0,0,0,35.62,405.66Z" style="fill:#263238"></path><circle cx="37.89" cy="405.66" r="0.5" style="fill:#263238"></circle><circle cx="40.67" cy="405.66" r="0.5" style="fill:#263238"></circle><circle cx="43.44" cy="405.66" r="0.5" style="fill:#263238"></circle><path d="M46.72,405.66a.5.5,0,1,0-.5.5A.5.5,0,0,0,46.72,405.66Z" style="fill:#263238"></path><path d="M49.5,405.66a.51.51,0,1,0-.5.5A.51.51,0,0,0,49.5,405.66Z" style="fill:#263238"></path><path d="M52.28,405.66a.51.51,0,0,0-.51-.51.51.51,0,0,0,0,1A.51.51,0,0,0,52.28,405.66Z" style="fill:#263238"></path><circle cx="54.55" cy="405.66" r="0.5" style="fill:#263238"></circle><circle cx="57.32" cy="405.66" r="0.5" style="fill:#263238"></circle><circle cx="60.1" cy="405.66" r="0.5" style="fill:#263238"></circle><path d="M63.38,405.66a.51.51,0,1,0-.5.5A.51.51,0,0,0,63.38,405.66Z" style="fill:#263238"></path><path d="M66.16,405.66a.51.51,0,0,0-.51-.51.51.51,0,0,0,0,1A.51.51,0,0,0,66.16,405.66Z" style="fill:#263238"></path><path d="M68.93,405.66a.5.5,0,0,0-.5-.51.51.51,0,1,0,0,1A.5.5,0,0,0,68.93,405.66Z" style="fill:#263238"></path><path d="M35.62,409a.51.51,0,1,0-.5.5A.51.51,0,0,0,35.62,409Z" style="fill:#263238"></path><circle cx="37.89" cy="409.04" r="0.5" style="fill:#263238"></circle><circle cx="40.67" cy="409.04" r="0.5" style="fill:#263238"></circle><circle cx="43.44" cy="409.04" r="0.5" style="fill:#263238"></circle><path d="M46.72,409a.5.5,0,1,0-.5.5A.5.5,0,0,0,46.72,409Z" style="fill:#263238"></path><path d="M49.5,409a.51.51,0,1,0-.5.5A.51.51,0,0,0,49.5,409Z" style="fill:#263238"></path><path d="M52.28,409a.51.51,0,0,0-.51-.51.51.51,0,0,0,0,1A.51.51,0,0,0,52.28,409Z" style="fill:#263238"></path><circle cx="54.55" cy="409.04" r="0.5" style="fill:#263238"></circle><circle cx="57.32" cy="409.04" r="0.5" style="fill:#263238"></circle><circle cx="60.1" cy="409.04" r="0.5" style="fill:#263238"></circle><path d="M63.38,409a.51.51,0,1,0-.5.5A.51.51,0,0,0,63.38,409Z" style="fill:#263238"></path><path d="M66.16,409a.51.51,0,0,0-.51-.51.51.51,0,0,0,0,1A.51.51,0,0,0,66.16,409Z" style="fill:#263238"></path><path d="M68.93,409a.5.5,0,0,0-.5-.51.51.51,0,1,0,0,1A.5.5,0,0,0,68.93,409Z" style="fill:#263238"></path><path d="M35.62,412.42a.51.51,0,1,0-1,0,.51.51,0,0,0,1,0Z" style="fill:#263238"></path><circle cx="37.89" cy="412.42" r="0.5" style="fill:#263238"></circle><circle cx="40.67" cy="412.42" r="0.5" style="fill:#263238"></circle><circle cx="43.44" cy="412.42" r="0.5" style="fill:#263238"></circle><path d="M46.72,412.42a.5.5,0,1,0-1,0,.5.5,0,0,0,1,0Z" style="fill:#263238"></path><path d="M49.5,412.42a.51.51,0,1,0-1,0,.51.51,0,0,0,1,0Z" style="fill:#263238"></path><path d="M52.28,412.42a.51.51,0,0,0-.51-.51.5.5,0,0,0-.5.51.5.5,0,0,0,.5.5A.5.5,0,0,0,52.28,412.42Z" style="fill:#263238"></path><circle cx="54.55" cy="412.42" r="0.5" style="fill:#263238"></circle><circle cx="57.32" cy="412.42" r="0.5" style="fill:#263238"></circle><circle cx="60.1" cy="412.42" r="0.5" style="fill:#263238"></circle><path d="M63.38,412.42a.51.51,0,1,0-1,0,.51.51,0,0,0,1,0Z" style="fill:#263238"></path><path d="M66.16,412.42a.51.51,0,0,0-.51-.51.5.5,0,0,0-.5.51.5.5,0,0,0,.5.5A.5.5,0,0,0,66.16,412.42Z" style="fill:#263238"></path><path d="M68.93,412.42a.5.5,0,0,0-.5-.51.51.51,0,0,0-.51.51.5.5,0,0,0,.51.5A.5.5,0,0,0,68.93,412.42Z" style="fill:#263238"></path><path d="M35.62,415.8a.51.51,0,1,0-1,0,.51.51,0,0,0,1,0Z" style="fill:#263238"></path><circle cx="37.89" cy="415.8" r="0.5" style="fill:#263238"></circle><circle cx="40.67" cy="415.8" r="0.5" style="fill:#263238"></circle><circle cx="43.44" cy="415.8" r="0.5" style="fill:#263238"></circle><path d="M46.72,415.8a.5.5,0,1,0-1,0,.5.5,0,0,0,1,0Z" style="fill:#263238"></path><path d="M49.5,415.8a.51.51,0,1,0-1,0,.51.51,0,0,0,1,0Z" style="fill:#263238"></path><path d="M52.28,415.8a.51.51,0,0,0-.51-.51.5.5,0,0,0-.5.51.5.5,0,0,0,.5.5A.5.5,0,0,0,52.28,415.8Z" style="fill:#263238"></path><circle cx="54.55" cy="415.8" r="0.5" style="fill:#263238"></circle><circle cx="57.32" cy="415.8" r="0.5" style="fill:#263238"></circle><circle cx="60.1" cy="415.8" r="0.5" style="fill:#263238"></circle><path d="M63.38,415.8a.51.51,0,1,0-1,0,.51.51,0,0,0,1,0Z" style="fill:#263238"></path><path d="M66.16,415.8a.51.51,0,0,0-.51-.51.5.5,0,0,0-.5.51.5.5,0,0,0,.5.5A.5.5,0,0,0,66.16,415.8Z" style="fill:#263238"></path><path d="M68.93,415.8a.5.5,0,0,0-.5-.51.51.51,0,0,0-.51.51.5.5,0,0,0,.51.5A.5.5,0,0,0,68.93,415.8Z" style="fill:#263238"></path><path d="M35.62,419.18a.51.51,0,1,0-1,0,.51.51,0,0,0,1,0Z" style="fill:#263238"></path><circle cx="37.89" cy="419.18" r="0.5" style="fill:#263238"></circle><circle cx="40.67" cy="419.18" r="0.5" style="fill:#263238"></circle><circle cx="43.44" cy="419.18" r="0.5" style="fill:#263238"></circle><path d="M46.72,419.18a.5.5,0,1,0-1,0,.5.5,0,0,0,1,0Z" style="fill:#263238"></path><path d="M49.5,419.18a.51.51,0,1,0-1,0,.51.51,0,0,0,1,0Z" style="fill:#263238"></path><path d="M52.28,419.18a.51.51,0,0,0-.51-.51.5.5,0,0,0-.5.51.5.5,0,0,0,.5.5A.5.5,0,0,0,52.28,419.18Z" style="fill:#263238"></path><circle cx="54.55" cy="419.18" r="0.5" style="fill:#263238"></circle><circle cx="57.32" cy="419.18" r="0.5" style="fill:#263238"></circle><circle cx="60.1" cy="419.18" r="0.5" style="fill:#263238"></circle><path d="M63.38,419.18a.51.51,0,1,0-1,0,.51.51,0,0,0,1,0Z" style="fill:#263238"></path><path d="M66.16,419.18a.51.51,0,0,0-.51-.51.5.5,0,0,0-.5.51.5.5,0,0,0,.5.5A.5.5,0,0,0,66.16,419.18Z" style="fill:#263238"></path><path d="M68.93,419.18a.5.5,0,0,0-.5-.51.51.51,0,0,0-.51.51.5.5,0,0,0,.51.5A.5.5,0,0,0,68.93,419.18Z" style="fill:#263238"></path><rect x="47.89" y="424.29" width="5.18" height="1.3" style="fill:none;stroke:#263238;stroke-linejoin:round"></rect><rect x="132.72" y="401.3" width="67.35" height="8.09" style="fill:none;stroke:#263238;stroke-linejoin:round"></rect><rect x="132.72" y="377.52" width="67.35" height="3.86" style="fill:#263238;stroke:#263238;stroke-linejoin:round"></rect><path d="M193.91,416.52h-5.5a1.3,1.3,0,0,1-1.3-1.29h0a1.3,1.3,0,0,1,1.3-1.3h5.5a1.3,1.3,0,0,1,1.3,1.3h0A1.3,1.3,0,0,1,193.91,416.52Z" style="fill:none;stroke:#263238;stroke-linejoin:round"></path><path d="M154.74,381.38c1.63,2,6.23,3.41,11.65,3.41s10-1.43,11.66-3.41" style="fill:none;stroke:#263238;stroke-linejoin:round"></path><path d="M155.39,377.52c2-1.64,6.18-2.77,11-2.77s9,1.13,11,2.77" style="fill:none;stroke:#263238;stroke-linejoin:round"></path><polyline points="35.02 429.92 35.02 442.32 201.11 442.32 201.11 429.73" style="fill:none;stroke:#263238;stroke-linejoin:round"></polyline><line x1="196.2" y1="442.44" x2="196.2" y2="429.79" style="fill:none;stroke:#263238;stroke-linejoin:round"></line><line x1="41.18" y1="442.44" x2="41.18" y2="429.79" style="fill:none;stroke:#263238;stroke-linejoin:round"></line><path d="M53,436.31a2.51,2.51,0,1,0-2.5,2.5A2.5,2.5,0,0,0,53,436.31Z" style="fill:none;stroke:#263238;stroke-linejoin:round;stroke-width:0.75px"></path><path d="M51.26,437.54a1.46,1.46,0,1,0-1.63-.06" style="fill:none;stroke:#263238;stroke-linejoin:round;stroke-width:0.5px"></path><line x1="50.41" y1="438" x2="50.41" y2="436.56" style="fill:none;stroke:#263238;stroke-linejoin:round;stroke-width:0.5px"></line></g></svg>